<svg xmlns="http://www.w3.org/2000/svg" xmlns:xlink="http://www.w3.org/1999/xlink" width="1920" zoomAndPan="magnify" viewBox="0 0 1440 809.999993" height="1080" preserveAspectRatio="xMidYMid meet" version="1.0"><defs><clipPath id="3f427df6c8"><path d="M 1088 0 L 1440 0 L 1440 810 L 1088 810 Z M 1088 0 " clip-rule="nonzero"/></clipPath><clipPath id="99a936ed72"><path d="M 1787.601562 1022.019531 L 946.058594 870.941406 L 1131.0625 -159.585938 L 1972.609375 -8.507812 Z M 1787.601562 1022.019531 " clip-rule="nonzero"/></clipPath><clipPath id="8bece5238c"><path d="M 1787.601562 1022.019531 L 946.058594 870.941406 L 1131.0625 -159.585938 L 1972.609375 -8.507812 Z M 1787.601562 1022.019531 " clip-rule="nonzero"/></clipPath><clipPath id="c2a501ce70"><path d="M 1029 44 L 1440 44 L 1440 810 L 1029 810 Z M 1029 44 " clip-rule="nonzero"/></clipPath><clipPath id="296038fc84"><path d="M 1385.246094 -98.320312 L 2119.695312 211.832031 L 1739.519531 1112.097656 L 1005.074219 801.949219 Z M 1385.246094 -98.320312 " clip-rule="nonzero"/></clipPath><clipPath id="5570269060"><path d="M 1358.40625 -34.753906 L 1730.8125 122.507812 L 1377.480469 959.210938 L 1005.074219 801.949219 Z M 1358.40625 -34.753906 " clip-rule="nonzero"/></clipPath><clipPath id="d0cfb885b9"><path d="M 1385.246094 -98.3125 L 2119.691406 211.839844 L 1739.515625 1112.109375 L 1005.070312 801.957031 Z M 1385.246094 -98.3125 " clip-rule="nonzero"/></clipPath><clipPath id="5cdf954267"><path d="M 0 0 L 580 0 L 580 810 L 0 810 Z M 0 0 " clip-rule="nonzero"/></clipPath><clipPath id="aedffb71d6"><path d="M -16.972656 -147.6875 L 800.140625 104.007812 L 491.921875 1104.613281 L -325.191406 852.917969 Z M -16.972656 -147.6875 " clip-rule="nonzero"/></clipPath><clipPath id="d6cbb87947"><path d="M -16.972656 -147.6875 L 800.140625 104.007812 L 491.921875 1104.613281 L -325.191406 852.917969 Z M -16.972656 -147.6875 " clip-rule="nonzero"/></clipPath></defs><rect x="-144" width="1728" fill="#ffffff" y="-80.999999" height="971.999992" fill-opacity="1"/><rect x="-144" width="1728" fill="#ffaa00" y="-80.999999" height="971.999992" fill-opacity="1"/><g clip-path="url(#3f427df6c8)"><g clip-path="url(#99a936ed72)"><g clip-path="url(#8bece5238c)"><path fill="#ffffff" d="M 1330.726562 939.457031 L 1416.542969 948.414062 C 1528.929688 915.875 1627.417969 881.378906 1712.007812 844.921875 C 1766.683594 820.371094 1804.890625 793.503906 1826.621094 764.308594 L 1837.898438 741.707031 L 1840.6875 717.90625 C 1839.246094 701.574219 1832.511719 684.496094 1820.476562 666.667969 C 1808.445312 648.84375 1792.875 630.523438 1773.769531 611.703125 C 1744.707031 583.40625 1690.242188 535.433594 1610.375 467.785156 C 1588.992188 448.664062 1570.234375 429.914062 1554.097656 411.546875 C 1538.066406 393.183594 1526.214844 375.429688 1518.546875 358.277344 L 1509.964844 333.03125 C 1506.265625 316.515625 1505.914062 300.613281 1508.910156 285.332031 C 1515.59375 254.777344 1531.519531 226.671875 1556.683594 201.015625 C 1581.851562 175.363281 1610.730469 152.128906 1643.316406 131.3125 C 1706.058594 88.179688 1806.699219 40.125 1945.234375 -12.855469 L 1295.71875 -129.625 C 1199.160156 -45.765625 1136.140625 31.828125 1106.664062 103.148438 C 1079.804688 168.859375 1082.191406 238.683594 1113.820312 312.617188 C 1122.175781 330.613281 1132.808594 348.375 1145.71875 365.902344 L 1166.929688 391.875 C 1182.25 409.023438 1200.121094 425.644531 1220.535156 441.738281 C 1228.507812 450.5 1263.878906 473.242188 1326.644531 509.96875 L 1557.183594 625.476562 L 1615.4375 658.960938 C 1631.960938 669.769531 1644.710938 680.273438 1653.6875 690.472656 L 1664.566406 705.554688 C 1670.011719 715.457031 1672.449219 725.066406 1671.878906 734.382812 C 1673.574219 758.582031 1647.433594 787.667969 1593.460938 821.648438 C 1553.027344 849.207031 1465.449219 888.476562 1330.726562 939.457031 " fill-opacity="1" fill-rule="nonzero"/></g></g></g><g clip-path="url(#c2a501ce70)"><g clip-path="url(#296038fc84)"><g clip-path="url(#5570269060)"><g clip-path="url(#d0cfb885b9)"><path fill="#000000" d="M 1783.929688 70.59375 L 1707.699219 44.832031 C 1598.765625 51.382812 1502.074219 62.570312 1417.628906 78.394531 C 1362.839844 89.519531 1322.5625 106.136719 1296.792969 128.246094 L 1281.886719 146.503906 L 1274.460938 167.597656 C 1272.414062 182.757812 1275.035156 199.683594 1282.316406 218.378906 C 1289.601562 237.070312 1300.003906 256.941406 1313.515625 277.992188 C 1334.144531 309.710938 1373.835938 364.550781 1432.59375 442.511719 C 1448.121094 464.304688 1461.335938 485.21875 1472.238281 505.25 C 1483.050781 525.25 1490.183594 543.84375 1493.636719 561.027344 L 1496.257812 585.769531 C 1496.230469 601.5625 1493.28125 616.105469 1487.417969 629.398438 C 1475.058594 655.839844 1454.792969 678.152344 1426.625 696.339844 C 1398.457031 714.523438 1367.414062 729.746094 1333.492188 742.007812 C 1267.546875 768.386719 1166.113281 791.472656 1029.191406 811.265625 L 1596.105469 1050.835938 C 1701.183594 994.320312 1774.460938 936.628906 1815.929688 877.765625 C 1853.867188 823.464844 1866.046875 759.425781 1852.464844 685.644531 C 1848.558594 667.550781 1842.535156 649.199219 1834.390625 630.597656 L 1820.433594 602.605469 C 1810.015625 583.851562 1797.175781 565.058594 1781.910156 546.21875 C 1776.457031 536.609375 1748.949219 508.648438 1699.394531 462.339844 L 1513.390625 309.902344 L 1467.273438 267.46875 C 1454.460938 254.242188 1445.019531 242.0625 1438.949219 230.9375 L 1432.152344 214.980469 C 1429.234375 204.847656 1428.992188 195.601562 1431.421875 187.242188 C 1434.855469 164.867188 1464.609375 143.757812 1520.695312 123.90625 C 1563.144531 107.117188 1650.890625 89.347656 1783.929688 70.59375 " fill-opacity="1" fill-rule="nonzero"/></g></g></g></g><g clip-path="url(#5cdf954267)"><g clip-path="url(#aedffb71d6)"><g clip-path="url(#d6cbb87947)"><path fill="#ffffff" d="M 426.574219 -10.503906 L 342.46875 -29.769531 C 226.972656 -11.054688 125.035156 11.285156 36.660156 37.25 C -20.582031 55.007812 -61.753906 77.0625 -86.855469 103.414062 L -100.785156 124.488281 L -106.429688 147.777344 C -106.976562 164.164062 -102.351562 181.933594 -92.5625 201.082031 C -82.773438 220.230469 -69.53125 240.300781 -52.839844 261.289062 C -27.410156 292.890625 20.855469 347.097656 91.957031 423.90625 C 110.875 445.472656 127.230469 466.347656 141.023438 486.535156 C 154.71875 506.699219 164.335938 525.753906 169.875 543.707031 L 175.34375 569.804688 C 177.019531 586.652344 175.445312 602.476562 170.625 617.285156 C 160.296875 646.808594 141.089844 672.78125 113.007812 695.207031 C 84.921875 717.628906 53.449219 737.203125 18.585938 753.929688 C -48.910156 789.15625 -154.621094 824.695312 -298.546875 860.539062 L 332.089844 1054.972656 C 438.082031 983.394531 510.015625 913.988281 547.898438 846.753906 C 582.503906 784.773438 588.574219 715.171875 566.117188 637.960938 C 559.996094 619.085938 551.585938 600.167969 540.890625 581.207031 L 522.976562 552.863281 C 509.839844 533.988281 494.113281 515.328125 475.792969 496.882812 C 468.9375 487.222656 436.574219 460.371094 378.707031 416.328125 L 163.820312 273.800781 L 110.042969 233.519531 C 94.945312 220.792969 83.558594 208.824219 75.882812 197.613281 L 66.90625 181.328125 C 62.699219 170.839844 61.441406 161.007812 63.132812 151.828125 C 64.375 127.601562 93.839844 101.886719 151.523438 74.679688 C 194.992188 52.210938 286.675781 23.816406 426.574219 -10.503906 " fill-opacity="1" fill-rule="nonzero"/></g></g></g></svg>