<svg xmlns="http://www.w3.org/2000/svg" xmlns:xlink="http://www.w3.org/1999/xlink" width="1920" zoomAndPan="magnify" viewBox="0 0 1440 809.999993" height="1080" preserveAspectRatio="xMidYMid meet" version="1.0"><defs><clipPath id="76d77ecfaa"><path d="M 0 0 L 756 0 L 756 810 L 0 810 Z M 0 0 " clip-rule="nonzero"/></clipPath><clipPath id="fdcb220966"><path d="M 597.949219 1008.441406 L -243.597656 857.363281 L -58.59375 -173.160156 L 782.953125 -22.082031 Z M 597.949219 1008.441406 " clip-rule="nonzero"/></clipPath><clipPath id="b50a6d95ed"><path d="M 597.949219 1008.441406 L -243.597656 857.363281 L -58.59375 -173.160156 L 782.953125 -22.082031 Z M 597.949219 1008.441406 " clip-rule="nonzero"/></clipPath><clipPath id="68dc46ab65"><path d="M 853 0 L 1440 0 L 1440 810 L 853 810 Z M 853 0 " clip-rule="nonzero"/></clipPath><clipPath id="79bb0dd648"><path d="M 720 54.117188 L 1396.902344 -368.503906 L 1914.851562 461.085938 L 1237.949219 883.703125 Z M 720 54.117188 " clip-rule="nonzero"/></clipPath><clipPath id="9e03787acf"><path d="M 720 54.117188 L 1262.667969 -284.695312 L 1780.617188 544.894531 L 1237.949219 883.703125 Z M 720 54.117188 " clip-rule="nonzero"/></clipPath><clipPath id="07d41cc22b"><path d="M 720 54.117188 L 1396.902344 -368.503906 L 1914.851562 461.085938 L 1237.949219 883.703125 Z M 720 54.117188 " clip-rule="nonzero"/></clipPath><clipPath id="0cd8ea94e8"><path d="M 1203 0 L 1440 0 L 1440 810 L 1203 810 Z M 1203 0 " clip-rule="nonzero"/></clipPath><clipPath id="46fbc31fd0"><path d="M 1258.117188 -73.503906 L 1987.339844 -9.796875 L 1909.273438 883.800781 L 1180.050781 820.09375 Z M 1258.117188 -73.503906 " clip-rule="nonzero"/></clipPath><clipPath id="02f5019d71"><path d="M 1258.117188 -73.503906 L 1987.339844 -9.796875 L 1909.273438 883.800781 L 1180.050781 820.09375 Z M 1258.117188 -73.503906 " clip-rule="nonzero"/></clipPath><clipPath id="f88fbe0164"><path d="M 0 0 L 566 0 L 566 810 L 0 810 Z M 0 0 " clip-rule="nonzero"/></clipPath><clipPath id="b4f4f3aff5"><path d="M 92.46875 -173.4375 L 826.917969 136.714844 L 446.742188 1036.984375 L -287.707031 726.832031 Z M 92.46875 -173.4375 " clip-rule="nonzero"/></clipPath><clipPath id="e56bfeb72a"><path d="M 92.46875 -173.4375 L 826.917969 136.714844 L 460.453125 1004.511719 L -273.992188 694.359375 Z M 92.46875 -173.4375 " clip-rule="nonzero"/></clipPath><clipPath id="0d30c40ee5"><path d="M 92.46875 -173.4375 L 826.917969 136.714844 L 446.742188 1036.984375 L -287.707031 726.832031 Z M 92.46875 -173.4375 " clip-rule="nonzero"/></clipPath></defs><rect x="-144" width="1728" fill="#ffffff" y="-80.999999" height="971.999992" fill-opacity="1"/><rect x="-144" width="1728" fill="#ffaa00" y="-80.999999" height="971.999992" fill-opacity="1"/><g clip-path="url(#76d77ecfaa)"><g clip-path="url(#fdcb220966)"><g clip-path="url(#b50a6d95ed)"><path fill="#ffffff" d="M 141.070312 925.878906 L 226.890625 934.835938 C 339.277344 902.296875 437.765625 867.800781 522.355469 831.34375 C 577.03125 806.796875 615.234375 779.925781 636.964844 750.730469 L 648.246094 728.128906 L 651.03125 704.328125 C 649.59375 687.996094 642.855469 670.917969 630.824219 653.09375 C 618.792969 635.265625 603.222656 616.945312 584.117188 598.125 C 555.050781 569.832031 500.585938 521.859375 420.722656 454.207031 C 399.339844 435.085938 380.578125 416.339844 364.445312 397.96875 C 348.414062 379.609375 336.5625 361.851562 328.890625 344.703125 L 320.3125 319.457031 C 316.613281 302.9375 316.257812 287.039062 319.253906 271.757812 C 325.9375 241.199219 341.863281 213.09375 367.03125 187.441406 C 392.199219 161.785156 421.074219 138.550781 453.660156 117.734375 C 516.40625 74.605469 617.042969 26.550781 755.582031 -26.429688 L 106.066406 -143.203125 C 9.507812 -59.339844 -53.511719 18.25 -82.988281 89.574219 C -109.847656 155.285156 -107.460938 225.105469 -75.835938 299.039062 C -67.476562 317.035156 -56.84375 334.796875 -43.933594 352.324219 L -22.726562 378.296875 C -7.402344 395.445312 10.464844 412.066406 30.878906 428.160156 C 38.855469 436.921875 74.222656 459.667969 136.988281 496.394531 L 367.53125 611.898438 L 425.785156 645.382812 C 442.308594 656.191406 455.058594 666.695312 464.035156 676.894531 L 474.910156 691.976562 C 480.355469 701.878906 482.792969 711.488281 482.222656 720.804688 C 483.917969 745.003906 457.78125 774.09375 403.808594 808.070312 C 363.375 835.632812 275.796875 874.902344 141.070312 925.878906 " fill-opacity="1" fill-rule="nonzero"/></g></g></g><g clip-path="url(#68dc46ab65)"><g clip-path="url(#79bb0dd648)"><g clip-path="url(#9e03787acf)"><g clip-path="url(#07d41cc22b)"><path fill="#000000" d="M 1087.894531 -174.988281 L 1022.894531 -127.421875 C 965.515625 -34.476562 918.984375 51.113281 883.296875 129.355469 C 860.84375 180.605469 851.246094 223.148438 854.503906 256.972656 L 860.863281 279.6875 L 873.851562 297.914062 C 885.082031 308.316406 900.449219 315.921875 919.945312 320.722656 C 939.441406 325.523438 961.699219 328.453125 986.714844 329.507812 C 1024.558594 330.886719 1092.308594 329.972656 1189.96875 326.769531 C 1216.75 326.609375 1241.480469 327.832031 1264.160156 330.441406 C 1286.757812 333.105469 1306.085938 337.972656 1322.140625 345.042969 L 1343.902344 357.144531 C 1356.8125 366.261719 1367.019531 377.046875 1374.523438 389.503906 C 1389.050781 414.847656 1395.644531 444.28125 1394.304688 477.8125 C 1392.964844 511.339844 1387.546875 545.519531 1378.042969 580.347656 C 1361.652344 649.519531 1322.128906 745.84375 1259.464844 869.324219 L 1782.097656 543.203125 C 1796.359375 424.644531 1791.339844 331.445312 1767.042969 263.597656 C 1744.449219 201.277344 1699.039062 154.433594 1630.820312 123.066406 C 1613.761719 115.84375 1595.273438 110.210938 1575.351562 106.164062 L 1544.402344 101.472656 C 1523.050781 99.203125 1500.269531 98.890625 1476.058594 100.539062 C 1465.050781 99.46875 1426.320312 105.886719 1359.871094 119.785156 L 1127.957031 184.269531 L 1066.660156 197.585938 C 1048.453125 200.457031 1033.046875 201.175781 1020.441406 199.738281 L 1003.464844 196.113281 C 993.492188 192.667969 985.78125 187.542969 980.339844 180.738281 C 964 165.046875 963.859375 128.53125 979.914062 71.191406 C 990.621094 26.773438 1026.613281 -55.285156 1087.894531 -174.988281 " fill-opacity="1" fill-rule="nonzero"/></g></g></g></g><g clip-path="url(#0cd8ea94e8)"><g clip-path="url(#46fbc31fd0)"><g clip-path="url(#02f5019d71)"><path fill="#ffffff" d="M 1654.085938 -38.449219 L 1580.214844 -39.445312 C 1486.898438 -3.007812 1405.589844 34.03125 1336.28125 71.660156 C 1291.558594 96.824219 1261.058594 122.691406 1244.789062 149.265625 L 1236.917969 169.410156 L 1236.382812 189.921875 C 1238.875 203.738281 1245.941406 217.777344 1257.578125 232.046875 C 1269.21875 246.316406 1283.914062 260.734375 1301.660156 275.304688 C 1328.632812 297.183594 1378.785156 333.875 1452.121094 385.378906 C 1471.835938 400.03125 1489.28125 414.5625 1504.460938 428.980469 C 1519.550781 443.394531 1531.03125 457.617188 1538.894531 471.652344 L 1548.167969 492.511719 C 1552.601562 506.3125 1554.128906 519.84375 1552.757812 533.105469 C 1549.421875 559.679688 1538.019531 584.875 1518.542969 608.699219 C 1499.066406 632.519531 1476.242188 654.566406 1450.066406 674.839844 C 1399.902344 716.46875 1317.804688 765.230469 1203.773438 821.125 L 1766.648438 870.445312 C 1842.496094 791.464844 1890.230469 720.425781 1909.84375 657.332031 C 1927.664062 599.21875 1920.226562 539.867188 1887.539062 479.273438 C 1879.019531 464.574219 1868.578125 450.25 1856.214844 436.304688 L 1836.121094 415.796875 C 1821.726562 402.359375 1805.207031 389.570312 1786.554688 377.425781 C 1779.074219 370.574219 1747.15625 353.917969 1690.792969 327.457031 L 1485.277344 246.800781 L 1433.011719 222.757812 C 1418.085938 214.816406 1406.402344 206.847656 1397.957031 198.84375 L 1387.515625 186.828125 C 1382.109375 178.804688 1379.285156 170.800781 1379.050781 162.8125 C 1375.734375 142.308594 1395.773438 115.484375 1439.164062 82.335938 C 1471.511719 55.703125 1543.148438 15.441406 1654.085938 -38.449219 " fill-opacity="1" fill-rule="nonzero"/></g></g></g><g clip-path="url(#f88fbe0164)"><g clip-path="url(#b4f4f3aff5)"><g clip-path="url(#e56bfeb72a)"><g clip-path="url(#0d30c40ee5)"><path fill="#000000" d="M 491.15625 -4.527344 L 414.921875 -30.292969 C 305.988281 -23.742188 209.300781 -12.550781 124.851562 3.273438 C 70.0625 14.394531 29.785156 31.011719 4.015625 53.125 L -10.890625 71.382812 L -18.316406 92.472656 C -20.363281 107.632812 -17.742188 124.558594 -10.457031 143.253906 C -3.175781 161.949219 7.226562 181.820312 20.742188 202.867188 C 41.367188 234.585938 81.0625 289.425781 139.820312 367.390625 C 155.34375 389.183594 168.558594 410.09375 179.464844 430.125 C 190.277344 450.128906 197.410156 468.71875 200.863281 485.90625 L 203.480469 510.644531 C 203.453125 526.4375 200.507812 540.980469 194.640625 554.277344 C 182.28125 580.714844 162.019531 603.03125 133.851562 621.214844 C 105.683594 639.398438 74.636719 654.621094 40.714844 666.882812 C -25.230469 693.261719 -126.664062 716.347656 -263.585938 736.140625 L 303.328125 975.714844 C 408.40625 919.199219 481.683594 861.507812 523.15625 802.640625 C 561.09375 748.34375 573.269531 684.300781 559.6875 610.519531 C 555.78125 592.425781 549.757812 574.078125 541.613281 555.472656 L 527.65625 527.480469 C 517.238281 508.726562 504.398438 489.933594 489.132812 471.097656 C 483.679688 461.484375 456.175781 433.527344 406.617188 387.21875 L 220.613281 234.777344 L 174.496094 192.347656 C 161.683594 179.117188 152.242188 166.941406 146.171875 155.816406 L 139.375 139.855469 C 136.457031 129.726562 136.214844 120.480469 138.648438 112.117188 C 142.078125 89.746094 171.835938 68.632812 227.917969 48.78125 C 270.367188 31.992188 358.113281 14.222656 491.15625 -4.527344 " fill-opacity="1" fill-rule="nonzero"/></g></g></g></g></svg>